<svg width="416" height="217" viewBox="0 0 416 217" fill="none" xmlns="http://www.w3.org/2000/svg">
<path fill-rule="evenodd" clip-rule="evenodd" d="M418.189 124.959C435.148 132.369 447 149.291 447 168.982C447 195.502 425.502 217 398.982 217H158.018C131.498 217 110 195.502 110 168.982C110 151.933 118.885 136.959 132.277 128.439C132.171 127.125 132.117 125.797 132.117 124.456C132.117 97.4541 154.007 75.5648 181.009 75.5648C182.703 75.5648 184.377 75.651 186.028 75.8192C200.337 32.1913 243.622 0.481873 294.797 0.481873C339.634 0.481873 378.415 24.8233 396.957 60.1955C412.521 68.3748 423.136 84.6991 423.136 103.503C423.136 111.2 421.358 118.481 418.189 124.959Z" fill="#4F9440"/>
<path fill-rule="evenodd" clip-rule="evenodd" d="M23.0189 166.119C23.7502 139.42 45.6237 118 72.5 118C99.4155 118 121.314 139.482 121.984 166.236C134.419 167.935 144 178.599 144 191.5C144 205.583 132.583 217 118.5 217H72.5H25.5C11.4167 217 0 205.583 0 191.5C0 178.254 10.0999 167.367 23.0189 166.119Z" fill="#5C913B"/>
</svg>
