<svg width="193" height="192" viewBox="0 0 193 192" fill="none" xmlns="http://www.w3.org/2000/svg">
<g clip-path="url(#clip0)">
<path d="M32.5 112C26.6067 112 21.8333 107.227 21.8333 101.333V21.3333C21.8333 15.44 26.6067 16 32.5 16C38.3933 16 43.1667 15.44 43.1667 21.3333C43.1667 21.3333 39.9347 55.5947 43.1667 85.3173C46.0467 111.845 64.5 117.333 64.5 117.333C64.5 123.227 38.3933 112 32.5 112ZM107.167 138.661C101.273 138.661 96.5 133.888 96.5 127.995V15.9947C96.5 10.1013 101.273 10.6613 107.167 10.6613C113.06 10.6613 117.833 10.1013 117.833 15.9947C117.833 15.9947 115.455 43.2373 117.167 65.5787C118.873 87.9093 117.833 127.995 117.833 127.995C117.833 133.883 113.06 138.661 107.167 138.661Z" fill="#7A5C44"/>
<path d="M192.5 21.3333L0.5 42.6667V21.3333L192.5 10.6667V21.3333Z" fill="#662113"/>
<path d="M121.268 98.1653C117.892 104.171 113.999 107.813 109.748 109.861C107.604 110.08 103.711 109.408 102.191 102.165C100.42 93.7013 98.628 81.7227 98.628 66.9973C98.628 44.896 101.833 20.3733 101.833 20.3733C101.833 15.4186 109.364 15.3813 112.959 15.088C112.127 10.6506 103.631 10.6613 93.3107 10.6613C85.5613 10.6613 81.2787 16.3893 80.5 22.9333C79.716 29.4827 76.292 56.784 76.532 76.2667C76.66 86.848 77.3533 98.4586 78.212 108.352C73.988 107.28 69.7587 106.256 65.604 105.733C50.6333 103.835 30.9107 102.88 27.5827 74.368C24.948 51.7973 27.1667 25.7067 27.1667 25.7067C27.1667 20.752 34.6973 19.5307 38.292 19.2373C37.46 14.8 29.3427 14.3786 19.0387 15.0613C11.3053 15.5733 7.08666 19.5627 5.83332 28.2667C3.81732 42.288 3.58266 74.6026 4.76666 96.9387C5.42799 109.408 7.37999 154.325 26.628 171.792C37.8707 181.989 56.964 188.016 80.5 186.667C102.82 185.387 121.156 177.088 131.423 168.464C149.247 153.493 153.236 142.667 153.977 130.944C155.167 112 128.607 85.1146 121.268 98.1653Z" fill="#A78E81"/>
<path d="M187.3 120.912C176.095 137.984 153.823 143.168 129.919 127.483C106.015 111.797 101.903 89.3013 113.108 72.2293C124.313 55.1573 153.044 58.448 168.489 68.9013C183.935 79.3547 198.505 103.84 187.3 120.912Z" fill="#A78E81"/>
<path d="M177.945 123.616C169.945 135.813 150.404 139.531 129.919 126.091C109.433 112.651 106.351 94.0854 114.356 81.888C122.356 69.6907 137.257 71.6427 157.743 85.088C178.228 98.5334 185.945 111.424 177.945 123.616Z" fill="#E2D2C7"/>
<path d="M110.18 77.6746C107.519 83.68 106.569 90.1333 107.561 96.608C115.551 98.9493 126.959 101.781 132.361 100.656C141.14 98.832 144.084 90.9653 142.793 84.7573C141.007 76.1386 125.775 71.1893 110.18 77.6746Z" fill="#292F33"/>
<path d="M125.241 94.7413C128.741 94.7413 131.577 91.9046 131.577 88.4053C131.577 84.9061 128.741 82.0693 125.241 82.0693C121.742 82.0693 118.905 84.9061 118.905 88.4053C118.905 91.9046 121.742 94.7413 125.241 94.7413Z" fill="#F5F8FA"/>
<path d="M183.471 125.765C179.023 130.597 173.481 134.037 167.145 135.707C161.817 129.312 154.681 119.968 153.556 114.565C151.732 105.787 157.78 99.9573 163.988 98.6666C172.612 96.88 183.215 108.88 183.471 125.765Z" fill="#292F33"/>
<path d="M167.636 122.56C171.135 122.56 173.972 119.723 173.972 116.224C173.972 112.725 171.135 109.888 167.636 109.888C164.137 109.888 161.3 112.725 161.3 116.224C161.3 119.723 164.137 122.56 167.636 122.56Z" fill="#F5F8FA"/>
<path d="M150.084 119.867C146.244 125.723 138.383 127.349 132.532 123.509C126.676 119.669 125.049 111.808 128.889 105.957C132.729 100.101 137.113 103.771 142.964 107.611C148.815 111.451 153.924 114.011 150.084 119.867Z" fill="#292F33"/>
<path d="M149.721 133.984C149.593 133.984 149.46 133.973 149.332 133.957C125.444 130.469 115.748 112.251 115.348 111.472C114.676 110.171 115.183 108.565 116.489 107.888C117.801 107.195 119.401 107.723 120.084 109.013C120.175 109.179 129.007 125.595 150.105 128.677C151.561 128.891 152.569 130.245 152.361 131.701C152.164 133.029 151.028 133.984 149.721 133.984Z" fill="#292F33"/>
<circle cx="153.121" cy="130.089" r="3.5" fill="#EB94B7"/>
<circle cx="117.121" cy="107.089" r="3.5" fill="#EB94B7"/>
</g>
<defs>
<clipPath id="clip0">
<rect x="0.5" width="192" height="192" fill="white"/>
</clipPath>
</defs>
</svg>
