<svg width="280" height="344" viewBox="0 0 280 344" fill="none" xmlns="http://www.w3.org/2000/svg">
<path d="M212.296 340.321H212.277C204.594 338.964 199.472 331.645 200.829 323.962L206.467 292.008C206.467 292.008 212.965 261.765 196.185 239.94C208.215 228.75 244.192 240.752 244.192 240.752L228.655 328.864C227.298 336.547 219.978 341.668 212.296 340.321ZM91.0165 340.12H90.9974C83.3148 338.764 78.193 331.444 79.5499 323.761L92.0868 256.634C92.0868 256.634 96.8932 233.519 96.8932 214.216C107.806 210.022 122.913 240.561 122.913 240.561L107.376 328.673C106.009 336.346 98.6896 341.468 91.0165 340.12ZM294.33 246.256C289.199 246.256 284.994 242.138 284.918 236.997C284.803 230.088 282.013 195.66 237.857 195.66C232.649 195.66 228.445 191.446 228.445 186.247C228.445 181.049 232.659 176.835 237.857 176.835C289.103 176.835 303.389 214.465 303.752 236.691C303.838 241.899 299.691 246.18 294.493 246.266L294.33 246.256Z" fill="#F4900C"/>
<path d="M145.493 164.852L112.431 50.3769L128.551 40.6302C132.077 46.4591 134.552 57.0849 138.622 75.3456C144.059 99.7887 151.513 133.252 164.011 150.605C167.05 154.829 166.095 160.715 161.871 163.754C160.199 164.958 145.493 164.852 145.493 164.852ZM72.7655 25.8956V7.06156C72.7655 3.16289 75.9284 0 79.827 0C83.7257 0 86.8886 3.16289 86.8886 7.06156V25.8956H72.7655ZM95.049 25.8956V7.06156C95.049 3.16289 98.2119 0 102.111 0C106.009 0 109.172 3.16289 109.172 7.06156V25.8956H95.049Z" fill="#754C29"/>
<path d="M294.33 274.502C304.732 274.502 313.164 263.961 313.164 250.958C313.164 237.954 304.732 227.413 294.33 227.413C283.928 227.413 275.496 237.954 275.496 250.958C275.496 263.961 283.928 274.502 294.33 274.502Z" fill="#754C29"/>
<path d="M276.49 325.787C276.49 325.787 270.307 301.755 266.953 286.093C263.781 271.292 257.159 248.053 255.764 207.499C255.668 206.113 255.391 202.606 254.445 200.055C253.279 196.902 249.027 191.14 247.126 188.56C239.701 178.507 227.9 172.401 213.433 170.911C201.173 169.649 188.846 169.143 176.606 167.671C170.968 166.993 166.095 166.181 163.018 165.072C147.385 159.444 144.27 141.164 139.951 127.184C132.306 102.436 125.541 77.2566 121.212 51.6955L120.868 51.7815L121.212 51.6955L120.954 50.1189V46.2489C135.928 39.4262 147.614 18.6524 139.788 10.836C126.257 4.07064 112.775 11.8871 106.219 20.3151C106.028 20.3055 105.847 20.2578 105.656 20.2578H80.8303C74.5714 20.2578 68.3699 21.7866 62.9423 25.1311C57.3619 28.5615 53.5205 33.798 47.3381 36.5022C39.8274 39.7893 30.893 37.3909 24.2423 42.6178C12.8808 51.5331 18.2701 66.7455 32.4028 67.252C34.3234 72.7655 39.5217 76.7406 45.685 76.7406H65.809C66.3345 76.8457 66.841 76.9413 67.4621 77.0178C73.2336 77.6962 77.8585 82.0344 81.5756 88.6277C91.5803 106.363 93.4628 129.182 95.0967 149.057C96.2339 162.894 96.7881 176.826 96.6065 190.719C93.8067 205.683 95.4599 222.988 95.4599 222.988C95.8803 226.992 97.2372 230.413 99.2248 233.452L99.1292 233.557C118.145 260.408 122.531 290.604 122.531 290.604L130.022 330.67C131.379 338.353 138.699 343.484 146.391 342.127C154.074 340.77 159.205 333.451 157.848 325.768L145.789 257.36C164.68 262.462 189.831 266.266 207.413 265.501C207.413 265.558 207.384 265.635 207.394 265.692C230.05 264.297 238.545 282.223 240.399 290.307C242.252 298.391 248.693 330.708 248.693 330.708C250.05 338.391 257.379 343.522 265.052 342.165C272.715 340.799 277.847 333.47 276.49 325.787Z" fill="#FFCC4D"/>
<path d="M114.428 211.178C105.016 220.59 103.343 234.187 110.692 241.545C118.049 248.903 131.647 247.231 141.059 237.809C150.471 228.387 152.144 214.799 144.795 207.441C137.438 200.084 123.84 201.756 114.428 211.178ZM124.824 152.077C124.824 167.681 137.476 180.323 153.071 180.323C162.903 180.323 171.541 175.297 176.596 167.681C170.959 167.002 166.085 166.19 163.008 165.082C148.063 159.702 145.12 143.706 141.48 132.201C140.935 130.491 140.448 128.866 139.932 127.203C130.997 131.943 124.824 141.241 124.824 152.077ZM115.403 109.707C115.403 96.7022 104.863 86.1624 91.8576 86.1624C88.1501 86.1624 84.691 87.0988 81.5663 88.6182C87.6341 99.3777 91.2652 116.186 93.4343 133.08C105.685 132.258 115.403 122.168 115.403 109.707ZM104.958 70.7302C104.958 81.4133 113.616 90.0611 124.289 90.0611C126.028 90.0611 127.681 89.7553 129.287 89.3253C124.996 72.2495 122.512 59.4928 121.193 51.7051C112.01 53.1957 104.958 61.1173 104.958 70.7302ZM190.739 189.754C190.739 205.358 203.39 218 218.985 218C234.589 218 247.231 205.349 247.231 189.754C247.231 189.343 247.126 188.971 247.107 188.569C239.682 178.517 227.881 172.411 213.414 170.92C209.047 170.471 204.126 170.079 199.09 169.697C193.949 174.819 190.739 181.899 190.739 189.754ZM110.825 24.9686C115.651 20.3533 123.41 14.5626 127.815 16.7891C132.22 19.0155 130.281 28.9533 116.673 37.3431C117.753 33.1482 121.939 25.7331 110.825 24.9686Z" fill="#F4900C"/>
<path d="M83.8212 48.4944C89.0194 48.4944 93.2334 44.2804 93.2334 39.0822C93.2334 33.884 89.0194 29.67 83.8212 29.67C78.623 29.67 74.409 33.884 74.409 39.0822C74.409 44.2804 78.623 48.4944 83.8212 48.4944Z" fill="#292F33"/>
<path d="M201.116 320.541C201.116 320.541 190.203 333.451 191.703 337.56C193.204 341.669 217.895 342.251 222.749 337.77C227.604 333.288 204.107 320.168 201.116 320.541ZM80.4959 320.541C80.4959 320.541 69.5834 333.451 71.0837 337.56C72.5743 341.669 97.2754 342.251 102.13 337.77C106.984 333.288 83.4868 320.168 80.4959 320.541ZM123.945 341.754C125.245 345.491 150.376 344.898 154.571 337.349C158.765 329.8 128.981 324.765 128.981 324.765C128.981 324.765 122.263 336.929 123.945 341.754ZM242.472 341.754C243.772 345.491 268.903 344.898 273.098 337.349C277.293 329.8 247.508 324.765 247.508 324.765C247.508 324.765 240.79 336.929 242.472 341.754Z" fill="#754C29"/>
</svg>
