<svg width="455" height="485" viewBox="0 0 455 485" fill="none" xmlns="http://www.w3.org/2000/svg">
<g clip-path="url(#clip0)">
<path d="M163.5 119C157.607 119 152.833 114.227 152.833 108.333V28.3333C152.833 22.44 157.607 23 163.5 23C169.393 23 174.167 22.44 174.167 28.3333C174.167 28.3333 170.935 62.5947 174.167 92.3173C177.047 118.845 195.5 124.333 195.5 124.333C195.5 130.227 169.393 119 163.5 119ZM238.167 145.661C232.273 145.661 227.5 140.888 227.5 134.995V22.9947C227.5 17.1013 232.273 17.6613 238.167 17.6613C244.06 17.6613 248.833 17.1013 248.833 22.9947C248.833 22.9947 246.455 50.2373 248.167 72.5787C249.873 94.9093 248.833 134.995 248.833 134.995C248.833 140.883 244.06 145.661 238.167 145.661Z" fill="#7A5C44"/>
<path d="M323.5 28.3333L131.5 49.6667V28.3333L323.5 17.6667V28.3333Z" fill="#662113"/>
<path d="M252.268 105.165C248.892 111.171 244.999 114.813 240.748 116.861C238.604 117.08 234.711 116.408 233.191 109.165C231.42 100.701 229.628 88.7227 229.628 73.9973C229.628 51.896 232.833 27.3733 232.833 27.3733C232.833 22.4186 240.364 22.3813 243.959 22.088C243.127 17.6506 234.631 17.6613 224.311 17.6613C216.561 17.6613 212.279 23.3893 211.5 29.9333C210.716 36.4827 207.292 63.784 207.532 83.2667C207.66 93.848 208.353 105.459 209.212 115.352C204.988 114.28 200.759 113.256 196.604 112.733C181.633 110.835 161.911 109.88 158.583 81.368C155.948 58.7973 158.167 32.7067 158.167 32.7067C158.167 27.752 165.697 26.5307 169.292 26.2373C168.46 21.8 160.343 21.3786 150.039 22.0613C142.305 22.5733 138.087 26.5627 136.833 35.2667C134.817 49.288 134.583 81.6026 135.767 103.939C136.428 116.408 138.38 161.325 157.628 178.792C168.871 188.989 187.964 195.016 211.5 193.667C233.82 192.387 252.156 184.088 262.423 175.464C280.247 160.493 284.236 149.667 284.977 137.944C286.167 119 259.607 92.1146 252.268 105.165Z" fill="#A78E81"/>
<path d="M318.3 127.912C307.095 144.984 284.823 150.168 260.919 134.483C237.015 118.797 232.903 96.3013 244.108 79.2293C255.313 62.1573 284.044 65.448 299.489 75.9013C314.935 86.3547 329.505 110.84 318.3 127.912Z" fill="#A78E81"/>
<path d="M308.945 130.616C300.945 142.813 281.404 146.531 260.919 133.091C240.433 119.651 237.351 101.085 245.356 88.888C253.356 76.6907 268.257 78.6427 288.743 92.088C309.228 105.533 316.945 118.424 308.945 130.616Z" fill="#E2D2C7"/>
<path d="M241.18 84.6746C238.519 90.68 237.569 97.1333 238.561 103.608C246.551 105.949 257.959 108.781 263.361 107.656C272.14 105.832 275.084 97.9653 273.793 91.7573C272.007 83.1386 256.775 78.1893 241.18 84.6746Z" fill="#292F33"/>
<path d="M256.241 101.741C259.741 101.741 262.577 98.9046 262.577 95.4053C262.577 91.9061 259.741 89.0693 256.241 89.0693C252.742 89.0693 249.905 91.9061 249.905 95.4053C249.905 98.9046 252.742 101.741 256.241 101.741Z" fill="#F5F8FA"/>
<path d="M314.471 132.765C310.023 137.597 304.481 141.037 298.145 142.707C292.817 136.312 285.681 126.968 284.556 121.565C282.732 112.787 288.78 106.957 294.988 105.667C303.612 103.88 314.215 115.88 314.471 132.765Z" fill="#292F33"/>
<path d="M298.636 129.56C302.135 129.56 304.972 126.723 304.972 123.224C304.972 119.725 302.135 116.888 298.636 116.888C295.137 116.888 292.3 119.725 292.3 123.224C292.3 126.723 295.137 129.56 298.636 129.56Z" fill="#F5F8FA"/>
<path d="M281.084 126.867C277.244 132.723 269.383 134.349 263.532 130.509C257.676 126.669 256.049 118.808 259.889 112.957C263.729 107.101 268.113 110.771 273.964 114.611C279.815 118.451 284.924 121.011 281.084 126.867Z" fill="#292F33"/>
<path d="M280.721 140.984C280.593 140.984 280.46 140.973 280.332 140.957C256.444 137.469 246.748 119.251 246.348 118.472C245.676 117.171 246.183 115.565 247.489 114.888C248.801 114.195 250.401 114.723 251.084 116.013C251.175 116.179 260.007 132.595 281.105 135.677C282.561 135.891 283.569 137.245 283.361 138.701C283.164 140.029 282.028 140.984 280.721 140.984Z" fill="#292F33"/>
<circle cx="284.121" cy="137.089" r="3.5" fill="#EB94B7"/>
<circle cx="248.121" cy="114.089" r="3.5" fill="#EB94B7"/>
</g>
<ellipse cx="227.5" cy="472.5" rx="227.5" ry="12.099" fill="#5CA74C"/>
<path d="M26 135.136L31 0H134L141 214.805V349.941L164 451.797L184 470.958L141 476H89L7 470.958L14 451.797L20 428.602V279.347L26 135.136Z" fill="#5C1D11"/>
<defs>
<clipPath id="clip0">
<rect x="131.5" y="7" width="192" height="192" fill="white"/>
</clipPath>
</defs>
</svg>
